<mxfile host="app.diagrams.net" agent="Mozilla/5.0 (Windows NT 10.0; Win64; x64) AppleWebKit/537.36 (KHTML, like Gecko) Chrome/126.0.0.0 YaBrowser/24.7.0.0 Safari/537.36" version="24.7.7">
  <diagram id="C5RBs43oDa-KdzZeNtuy" name="Page-1">
    <mxGraphModel dx="989" dy="523" grid="1" gridSize="10" guides="1" tooltips="1" connect="1" arrows="1" fold="1" page="1" pageScale="1" pageWidth="1169" pageHeight="827" math="0" shadow="0">
      <root>
        <mxCell id="WIyWlLk6GJQsqaUBKTNV-0" />
        <mxCell id="WIyWlLk6GJQsqaUBKTNV-1" parent="WIyWlLk6GJQsqaUBKTNV-0" />
        <mxCell id="oEOvBtnqVhMtwNFOPzGN-0" value="&lt;h2&gt;&lt;span style=&quot;font-size: 17px;&quot;&gt;Опишите процесс «Оформление договора» (с арендатором) с помощью графического способа&lt;/span&gt;&lt;br&gt;&lt;/h2&gt;" style="text;whiteSpace=wrap;html=1;" parent="WIyWlLk6GJQsqaUBKTNV-1" vertex="1">
          <mxGeometry x="40" y="40" width="540" height="100" as="geometry" />
        </mxCell>
        <mxCell id="AHyAFD0pu5LO6jVeFDUx-0" value="&lt;h2 style=&quot;text-align: left;&quot;&gt;&lt;span style=&quot;font-size: 17px;&quot;&gt;Оформление договора&lt;/span&gt;&lt;/h2&gt;" style="swimlane;html=1;childLayout=stackLayout;resizeParent=1;resizeParentMax=0;horizontal=1;startSize=20;horizontalStack=0;whiteSpace=wrap;" parent="WIyWlLk6GJQsqaUBKTNV-1" vertex="1">
          <mxGeometry x="20" y="130" width="1140" height="310" as="geometry" />
        </mxCell>
        <mxCell id="AHyAFD0pu5LO6jVeFDUx-1" value="Менеджер по аренде" style="swimlane;html=1;startSize=20;horizontal=0;" parent="AHyAFD0pu5LO6jVeFDUx-0" vertex="1">
          <mxGeometry y="20" width="1140" height="170" as="geometry" />
        </mxCell>
        <mxCell id="AHyAFD0pu5LO6jVeFDUx-7" value="" style="edgeStyle=orthogonalEdgeStyle;rounded=0;orthogonalLoop=1;jettySize=auto;html=1;" parent="AHyAFD0pu5LO6jVeFDUx-1" source="AHyAFD0pu5LO6jVeFDUx-5" target="AHyAFD0pu5LO6jVeFDUx-6" edge="1">
          <mxGeometry relative="1" as="geometry" />
        </mxCell>
        <mxCell id="AHyAFD0pu5LO6jVeFDUx-5" value="Готовность к сделке" style="ellipse;whiteSpace=wrap;html=1;aspect=fixed;" parent="AHyAFD0pu5LO6jVeFDUx-1" vertex="1">
          <mxGeometry x="30" y="60" width="80" height="80" as="geometry" />
        </mxCell>
        <mxCell id="AHyAFD0pu5LO6jVeFDUx-6" value="Определение ключевых условий аренды" style="rounded=1;whiteSpace=wrap;html=1;" parent="AHyAFD0pu5LO6jVeFDUx-1" vertex="1">
          <mxGeometry x="140" y="70" width="120" height="60" as="geometry" />
        </mxCell>
        <mxCell id="AHyAFD0pu5LO6jVeFDUx-15" value="" style="edgeStyle=orthogonalEdgeStyle;rounded=0;orthogonalLoop=1;jettySize=auto;html=1;" parent="AHyAFD0pu5LO6jVeFDUx-1" source="AHyAFD0pu5LO6jVeFDUx-12" target="AHyAFD0pu5LO6jVeFDUx-14" edge="1">
          <mxGeometry relative="1" as="geometry" />
        </mxCell>
        <mxCell id="AHyAFD0pu5LO6jVeFDUx-12" value="Переговоры с арендатором по условиям договора" style="rounded=1;whiteSpace=wrap;html=1;" parent="AHyAFD0pu5LO6jVeFDUx-1" vertex="1">
          <mxGeometry x="300" y="70" width="120" height="60" as="geometry" />
        </mxCell>
        <mxCell id="AHyAFD0pu5LO6jVeFDUx-22" style="edgeStyle=orthogonalEdgeStyle;rounded=0;orthogonalLoop=1;jettySize=auto;html=1;entryX=0.5;entryY=0;entryDx=0;entryDy=0;" parent="AHyAFD0pu5LO6jVeFDUx-1" source="AHyAFD0pu5LO6jVeFDUx-14" target="AHyAFD0pu5LO6jVeFDUx-20" edge="1">
          <mxGeometry relative="1" as="geometry">
            <Array as="points">
              <mxPoint x="520" y="40" />
              <mxPoint x="800" y="40" />
            </Array>
          </mxGeometry>
        </mxCell>
        <mxCell id="AHyAFD0pu5LO6jVeFDUx-14" value="Изменяем договор?" style="rhombus;whiteSpace=wrap;html=1;rounded=1;arcSize=0;" parent="AHyAFD0pu5LO6jVeFDUx-1" vertex="1">
          <mxGeometry x="480" y="60" width="80" height="80" as="geometry" />
        </mxCell>
        <mxCell id="AHyAFD0pu5LO6jVeFDUx-21" value="" style="edgeStyle=orthogonalEdgeStyle;rounded=0;orthogonalLoop=1;jettySize=auto;html=1;" parent="AHyAFD0pu5LO6jVeFDUx-1" source="AHyAFD0pu5LO6jVeFDUx-18" target="AHyAFD0pu5LO6jVeFDUx-20" edge="1">
          <mxGeometry relative="1" as="geometry" />
        </mxCell>
        <mxCell id="AHyAFD0pu5LO6jVeFDUx-18" value="Финальное согласование условий аренды" style="rounded=1;whiteSpace=wrap;html=1;" parent="AHyAFD0pu5LO6jVeFDUx-1" vertex="1">
          <mxGeometry x="580" y="70" width="120" height="60" as="geometry" />
        </mxCell>
        <mxCell id="AHyAFD0pu5LO6jVeFDUx-20" value="Подписание договора аренды" style="rounded=1;whiteSpace=wrap;html=1;" parent="AHyAFD0pu5LO6jVeFDUx-1" vertex="1">
          <mxGeometry x="740" y="70" width="120" height="60" as="geometry" />
        </mxCell>
        <mxCell id="AHyAFD0pu5LO6jVeFDUx-28" value="" style="edgeStyle=orthogonalEdgeStyle;rounded=0;orthogonalLoop=1;jettySize=auto;html=1;" parent="AHyAFD0pu5LO6jVeFDUx-1" source="AHyAFD0pu5LO6jVeFDUx-25" target="AHyAFD0pu5LO6jVeFDUx-27" edge="1">
          <mxGeometry relative="1" as="geometry" />
        </mxCell>
        <mxCell id="AHyAFD0pu5LO6jVeFDUx-25" value="Передача объекта арендатору" style="rounded=1;whiteSpace=wrap;html=1;" parent="AHyAFD0pu5LO6jVeFDUx-1" vertex="1">
          <mxGeometry x="900" y="70" width="120" height="60" as="geometry" />
        </mxCell>
        <mxCell id="AHyAFD0pu5LO6jVeFDUx-27" value="" style="points=[[0.145,0.145,0],[0.5,0,0],[0.855,0.145,0],[1,0.5,0],[0.855,0.855,0],[0.5,1,0],[0.145,0.855,0],[0,0.5,0]];shape=mxgraph.bpmn.event;html=1;verticalLabelPosition=bottom;labelBackgroundColor=#ffffff;verticalAlign=top;align=center;perimeter=ellipsePerimeter;outlineConnect=0;aspect=fixed;outline=end;symbol=terminate2;" parent="AHyAFD0pu5LO6jVeFDUx-1" vertex="1">
          <mxGeometry x="1060" y="75" width="50" height="50" as="geometry" />
        </mxCell>
        <mxCell id="AHyAFD0pu5LO6jVeFDUx-2" value="Юрист" style="swimlane;html=1;startSize=20;horizontal=0;" parent="AHyAFD0pu5LO6jVeFDUx-0" vertex="1">
          <mxGeometry y="190" width="1140" height="120" as="geometry" />
        </mxCell>
        <mxCell id="AHyAFD0pu5LO6jVeFDUx-11" value="" style="edgeStyle=orthogonalEdgeStyle;rounded=0;orthogonalLoop=1;jettySize=auto;html=1;" parent="AHyAFD0pu5LO6jVeFDUx-2" source="AHyAFD0pu5LO6jVeFDUx-8" target="AHyAFD0pu5LO6jVeFDUx-10" edge="1">
          <mxGeometry relative="1" as="geometry" />
        </mxCell>
        <mxCell id="AHyAFD0pu5LO6jVeFDUx-8" value="Подготовка типового договора аренды" style="whiteSpace=wrap;html=1;rounded=1;" parent="AHyAFD0pu5LO6jVeFDUx-2" vertex="1">
          <mxGeometry x="140" y="30" width="120" height="60" as="geometry" />
        </mxCell>
        <mxCell id="AHyAFD0pu5LO6jVeFDUx-10" value="Юридическая проверка условий договора" style="whiteSpace=wrap;html=1;rounded=1;" parent="AHyAFD0pu5LO6jVeFDUx-2" vertex="1">
          <mxGeometry x="300" y="30" width="120" height="60" as="geometry" />
        </mxCell>
        <mxCell id="AHyAFD0pu5LO6jVeFDUx-16" value="Внесение изменений в договор" style="rounded=1;whiteSpace=wrap;html=1;" parent="AHyAFD0pu5LO6jVeFDUx-2" vertex="1">
          <mxGeometry x="460" y="30" width="120" height="60" as="geometry" />
        </mxCell>
        <mxCell id="AHyAFD0pu5LO6jVeFDUx-23" value="Регистрация договора" style="rounded=1;whiteSpace=wrap;html=1;" parent="AHyAFD0pu5LO6jVeFDUx-2" vertex="1">
          <mxGeometry x="740" y="30" width="120" height="60" as="geometry" />
        </mxCell>
        <mxCell id="AHyAFD0pu5LO6jVeFDUx-9" value="" style="edgeStyle=orthogonalEdgeStyle;rounded=0;orthogonalLoop=1;jettySize=auto;html=1;" parent="AHyAFD0pu5LO6jVeFDUx-0" source="AHyAFD0pu5LO6jVeFDUx-6" target="AHyAFD0pu5LO6jVeFDUx-8" edge="1">
          <mxGeometry relative="1" as="geometry" />
        </mxCell>
        <mxCell id="AHyAFD0pu5LO6jVeFDUx-13" value="" style="edgeStyle=orthogonalEdgeStyle;rounded=0;orthogonalLoop=1;jettySize=auto;html=1;" parent="AHyAFD0pu5LO6jVeFDUx-0" source="AHyAFD0pu5LO6jVeFDUx-10" target="AHyAFD0pu5LO6jVeFDUx-12" edge="1">
          <mxGeometry relative="1" as="geometry" />
        </mxCell>
        <mxCell id="AHyAFD0pu5LO6jVeFDUx-17" value="" style="edgeStyle=orthogonalEdgeStyle;rounded=0;orthogonalLoop=1;jettySize=auto;html=1;" parent="AHyAFD0pu5LO6jVeFDUx-0" source="AHyAFD0pu5LO6jVeFDUx-14" target="AHyAFD0pu5LO6jVeFDUx-16" edge="1">
          <mxGeometry relative="1" as="geometry" />
        </mxCell>
        <mxCell id="AHyAFD0pu5LO6jVeFDUx-19" style="edgeStyle=orthogonalEdgeStyle;rounded=0;orthogonalLoop=1;jettySize=auto;html=1;entryX=0.5;entryY=1;entryDx=0;entryDy=0;" parent="AHyAFD0pu5LO6jVeFDUx-0" source="AHyAFD0pu5LO6jVeFDUx-16" target="AHyAFD0pu5LO6jVeFDUx-18" edge="1">
          <mxGeometry relative="1" as="geometry">
            <Array as="points">
              <mxPoint x="640" y="250" />
            </Array>
          </mxGeometry>
        </mxCell>
        <mxCell id="AHyAFD0pu5LO6jVeFDUx-24" value="" style="edgeStyle=orthogonalEdgeStyle;rounded=0;orthogonalLoop=1;jettySize=auto;html=1;" parent="AHyAFD0pu5LO6jVeFDUx-0" source="AHyAFD0pu5LO6jVeFDUx-20" target="AHyAFD0pu5LO6jVeFDUx-23" edge="1">
          <mxGeometry relative="1" as="geometry" />
        </mxCell>
        <mxCell id="AHyAFD0pu5LO6jVeFDUx-26" style="edgeStyle=orthogonalEdgeStyle;rounded=0;orthogonalLoop=1;jettySize=auto;html=1;entryX=0.5;entryY=1;entryDx=0;entryDy=0;" parent="AHyAFD0pu5LO6jVeFDUx-0" source="AHyAFD0pu5LO6jVeFDUx-23" target="AHyAFD0pu5LO6jVeFDUx-25" edge="1">
          <mxGeometry relative="1" as="geometry" />
        </mxCell>
      </root>
    </mxGraphModel>
  </diagram>
</mxfile>
